# xmcd
# 
# Track frame offsets:
#     150
#     11410
#     27900
#     48145
#     68927
#     83632
#     103012
#     117340
#     132275
#     143360
#     159020
#     172505
#     184322
#     202002
#     217105
#     236182
#     250290
#     266850
#     284760
#     298025
# 
# Disc length: 4063
# 
# Revision: 7
# Processed by: cddbd v1.5.2PL0 Copyright (c) Steve Scherf et al.
# Submitted via: fre:ac v1.0.31
# 
DISCID=240fdd14
DTITLE=Randy Travis - Worship and Faith
DYEAR=2003
DGENRE=Country
TTITLE0=He's My Rock, My Sword, My Shield
TTITLE1=Farther Along
TTITLE2=How Great Thou Art
TTITLE3=Just A Closer Walk With Thee
TTITLE4=Shall We Gather At The River
TTITLE5=You Are Worthy Of My Praise
TTITLE6=Love Lifted Me
TTITLE7=Softly And Tenderly
TTITLE8=Sweet By And By
TTITLE9=Blessed Assurance
TTITLE10=I'll Fly Away
TTITLE11=Turn Your Radio On
TTITLE12=Open The Eyes Of My Heart
TTITLE13=In The Garden
TTITLE14=Above All
TTITLE15=Will The Circle Be Unbroken
TTITLE16=We Fall Down
TTITLE17=Peace In The Valley
TTITLE18=The Unclouded Day
TTITLE19=Room At The Cross For You
EXTD=
EXTT0=
EXTT1=
EXTT2=
EXTT3=
EXTT4=
EXTT5=
EXTT6=
EXTT7=
EXTT8=
EXTT9=
EXTT10=
EXTT11=
EXTT12=
EXTT13=
EXTT14=
EXTT15=
EXTT16=
EXTT17=
EXTT18=
EXTT19=
PLAYORDER=
